<?xml version="1.0" encoding="UTF-8" standalone="no"?>
<!-- Created with Inkscape (http://www.inkscape.org/) -->

<svg
   xmlns:svg="http://www.w3.org/2000/svg"
   xmlns="http://www.w3.org/2000/svg"
   version="1.1"
   width="100%"
   height="100%"
   viewBox="0 0 248 470"
   id="lightbulb">
  <g
     transform="translate(-66.9,-109)"
     id="layer1">
    <g
       transform="matrix(0.713,0,0,0.713,-213,-102)"
       id="g3342">
      <path
         d="m 523,919 0,6 16,25 c 0,0 9,6 36,6 26,0 37,-5 38,-6 1,-1 17,-23 18,-25 0,-2 -1,-7 -1,-7 z"
         id="path3332"
         style="fill:#444444" />
      <path
         d="m 491,768 -1,28 c 0,3 2,3 3,4 1,2 2,3 2,5 0,3 -1,7 -3,7 -1,1 -4,3 -4,7 0,3 1,5 4,7 1,0 2,1 3,0 l -1,13 c 0,0 -1,1 -2,2 -2,1 -3,3 -3,5 0,1 0,3 2,5 2,1 5,2 5,2 v 9 c 0,0 -8,4 -8,9 0,2 1,4 3,5 3,1 8,3 8,3 2,4 -3,7 -5,10 -1,1 -2,2 -3,3 0,1 -1,1 -2,2 0,1 0,3 1,5 1,1 3,2 5,3 1,1 3,1 3,1 1,2 4,4 5,6 3,3 6,6 9,7 3,3 7,4 11,5 9,1 27,2 44,3 14,0 27,0 37,0 23,-1 20,-1 29,-3 2,-1 4,-2 6,-2 2,-1 5,-2 6,-3 3,-2 4,-4 6,-7 1,-1 2,-3 3,-4 1,-1 3,-1 3,-3 0,-1 -1,-2 0,-5 0,-2 0,-5 0,-6 0,-1 3,-2 5,-3 2,-1 5,-3 5,-6 0,-4 -3,-4 -5,-6 -2,-1 -4,-4 -4,-6 0,-6 8,-5 8,-12 1,-2 0,-4 -2,-5 -2,-2 -6,-3 -6,-7 0,-2 2,-4 4,-7 2,-2 4,-6 4,-8 0,-2 -3,-4 -5,-6 -1,-2 -2,-4 -2,-6 0,-2 2,-4 3,-6 1,-1 3,-1 3,-3 l -1,-38 c 0,0 2,-1 4,-3 3,-3 6,-6 5,-9 -12,-38 -163,-14 -163,-14 z"
         id="path2994"
         style="fill:#aaaaaa" />
      <path
         d="m 664,881 c -52,14 -105,16 -158,17 -6,0 -16,-5 -13,3 6,3 14,3 20,4 50,-1 97,-3 146,-16 5,0 5,-5 5,-8 z m 2,-25 c -51,15 -107,17 -160,18 -6,0 -15,-5 -12,3 6,3 13,3 19,4 50,-1 98,-3 147,-16 5,0 6,-6 6,-9 z m -2,-25 c -52,14 -105,15 -158,16 -6,0 -13,-1 -10,7 6,3 11,0 17,1 50,-1 98,-2 146,-15 6,0 5,-7 5,-9 z m 0,-25 c -52,14 -105,16 -158,17 -6,0 -14,-2 -11,7 6,3 12,-1 18,0 50,-1 97,-2 146,-15 5,0 5,-6 5,-9 z"
         id="path3191"
         style="fill:#444444" />
    </g>
    <g
       transform="matrix(0.713,0,0,0.713,-84.8,112)"
       id="g3144"
       style="fill:#bbbbbb;stroke:#eeeeee;stroke-width:8">
      <path
         d="m 362,74.9 c -15,0.7 -44,-4.7 -34,-25.8 10,-15.7 32,-12 49,-12.1 25,0.8 51,7 75,0.1 22,-5.6 13,-33.45 -8,-27.5 -25,1.3 -47,-18.44 -73,-11.56 -23,6 -46,15.36 -69,20.16 -24,6 -50,18.8 -59,42.6 -3,17.1 12,32.9 26,39.2 31,-8.3 62,-16.7 93,-25.1 z"
         id="path3110" />
      <path
         d="m 362,74.9 c -31,8.5 -63,16.9 -94,25.1 27,18 60,14 89,5 26,-7.2 54,-18.8 81,-13.2 19,4.9 35,17.2 54,19.2 24,-6 3,-35.4 -15,-29.8 -32,-2.4 -64,3.7 -94,-4.8 -7,-0.7 -14,-1.1 -21,-1.5 z"
         id="path2996" />
      <path
         d="m 261,102 c 10,17 31,21 48,26 48,12 99,10 148,13 27,1 56,-3 82,9 18,10 3,37 -15,26 -34,-9 -69,-12 -103,-3 -27,8 -56,14 -84,7 -26,-6 -53,-11 -77,-21 -16,-11 -11,-32 -12,-48 -1,-5 9,-6 13,-9 z"
         id="path3006" />
      <path
         d="M 558,103 C 558,78.7 529,72.2 510,75.1 434,79.4 358,92 285,114 c -26,10 -56,21 -67,49 -6,17 0,37 15,46 4,8 31,18 23,4 -4,-7 20,-12 27,-19 9,-5 24,-15 5,-16 -9,-6 22,-12 30,-15 64,-19 130,-27 196,-33 18,2 41,-3 43,-24 l 0,-3 0,0 z"
         id="path3002" />
      <path
         d="m 286,219 c 13,18 38,19 58,22 38,4 75,8 113,10 -5,19 -13,39 -8,59 4,17 10,41 32,42 23,2 24,-24 20,-41 -2,-19 -2,-44 17,-54 17,-10 24,-39 5,-52 -13,-7 -29,-4 -44,-6 -50,-4 -99,-9 -148,-13 -16,7 -45,10 -46,31 l 1,2 0,0 z"
         id="path3008" />
      <path
         d="m 561,166 c 2,-21 -21,-31 -39,-27 -41,5 -81,7 -121,16 -38,7 -77,13 -114,26 -22,10 -46,25 -48,51 1,20 21,27 36,35 19,14 12,42 15,64 -4,22 18,25 34,30 10,0 35,18 27,-3 -7,-32 -10,-65 -20,-96 -3,-14 -31,-34 -3,-34 37,-10 76,-17 115,-22 32,-6 65,-9 98,-14 11,-3 20,-14 20,-26 z"
         id="path3004" />
      <path
         d="M 533,37.9 C 534,14.5 507,6.92 488,8.86 428,8.45 368,19.3 311,38.9 277,49.6 240,60.5 219,91 c -10,17 -7,42 10,54 11,-10 25,-16 36,-28 44,-21.7 93,-33.2 141,-40.5 31,-5.1 62,-7.7 93,-11.6 17,0.7 34,-8.1 34,-27 z"
         id="path3000" />
    </g>
    <g
       transform="matrix(0.713,0,0,0.713,-113,-102)"
       id="g3058">
      <path
         d="m 304,649 v 18 h 265 l 1,-13 1,-9 z"
         id="path2992"
         style="fill:#444444" />
      <path
         d="m 305,658 -4,1 1,53 c 0,12 11,23 13,25 4,4 22,20 22,21 1,3 4,7 4,7 1,1 1,3 1,3 l 9,2 c 0,0 13,3 82,3 67,0 101,-7 101,-7 l 5,-8 0,-2 32,-38 2,-62 -149,4 -103,-1 z"
         id="path3020"
         style="fill:#888888" />
      <g
         transform="translate(0,20)"
         id="g3050">
        <path
           d="m 307,611 -7,8 v 4 c 0,1 -2,1 -2,2 v 10 h 197 c 41,0 80,-3 80,-3 l -1,-10 -1,-1 0,-5 -8,-7 h -18 c 0,0 -10,0 -10,-5 0,-6 -2,-13 -7,-14 l -45,-6 0,-18 c 0,-6 -2,-9 -8,-9 l -89,1 c -3,0 -5,3 -5,5 l -1,22 -43,6 c -4,2 -5,5 -6,9 -1,5 0,9 -11,11 -4,1 -15,0 -15,0 z"
           id="path3018"
           style="fill:#888888" />
      </g>
    </g>
  </g>
</svg>
