<?xml version="1.0" encoding="UTF-8" standalone="no"?>
<!-- Created with Inkscape (http://www.inkscape.org/) -->

<svg
   xmlns:svg="http://www.w3.org/2000/svg"
   xmlns="http://www.w3.org/2000/svg"
   width="100%"
   height="100%"
   viewBox="0 0 200 200"
   id="brain">
    <path
     d="m 53.7,195 c 6.2,-12 4.6,-45 3.8,-58 0,0 -8.1,-7 -10.7,-10 -4.6,-6 -10.1,-15 -12.4,-22 -2.7,-8.4 -4,-20.1 -3.3,-28.6 0.7,-8 3,-18.9 7.4,-25.7 4.8,-7.4 14.7,-14.9 22.7,-18.9 7.9,-4.1 20,-7 29.1,-7.7 8.7,-0.6 20.7,1 28.7,3.2 10,2.4 23,7.3 31,13.5 19,15.9 18,36.7 20,59 1,5.2 6,11.2 9,16.2 1,2 4,3 5,5 1,2 2,4 1,5 0,2 -4,3 -6,4 -1,1 -3,1 -4,2 -1,3 3,7 1,10 -1,1 -5,1 -5,1 0,0 5,6 3,6 -1,0 -5,6 -4,8 0,0 2,5 3,7 0,3 -1,7 -3,9 -2,2 -6,2 -9,2 -4,2 -11,1 -15,2 -3,1 -7,2 -10,4 -2,1 -5,3 -6,5 -2,6 0,3 -1,10 l -75.7,0Z"
     style="fill:#fffdfc;stroke:#333333;stroke-width:5" /><path
     d="m 88.1,132 c 0,0 -3.4,2 -5,3 -1.5,0 -3.8,0 -5.3,0 -1.2,-1 -3.1,-3 -3.1,-3 -13.1,3 -19.5,-8 -20.3,-15 0,0 -4.6,-1 -6.6,-2 -5.7,0 -8.6,-15 -8.6,-15.7 C 38.1,73.3 41.6,60.4 59,43.4 66.5,36 77.8,32.2 94.9,31.6 106,31.2 115,31.7 122,35.5 c 0,0 15,6.4 20,10.7 6,4.1 11,10.8 15,16.7 5,11.6 3,29.3 -9,31.3 l -14,2.3 c -4,0.7 5,8.5 -6,15.5 -9,9 -20,1 -21,2 0,0 -4,5 -5,8 -1,3 -2.5,6 -3.2,9 -0.6,2 0.7,6 -1.2,7 -4.6,3 -9.5,1 -9.5,0 v -6 z"
     style="fill:#919899;stroke:#454a4b;stroke-width:3" />
    <g
     id="g3760"
     style="fill:none;stroke:#3d3d3d;stroke-width:9;stroke-linecap:round">
        <line
       x1="159"
       y1="33.7"
       x2="165"
       y2="26"/>
        <line
       x1="120"
       y1="16.6"
       x2="123"
       y2="7.14"/>
        <line
       x1="74.8"
       y1="15.7"
       x2="72.7"
       y2="6.07" />
        <line
       x1="25.3"
       y1="114"
       x2="16.2"
       y2="118"/>
        <line
       x1="39.9"
       y1="33.7"
       x2="33.6"
       y2="26.1" />
        <line
       x1="20.6"
       y1="67.7"
       x2="10.9"
       y2="66.1" />
        <line
       x1="180"
       y1="67"
       x2="190"
       y2="64.7" />
    </g>
</svg>