<?xml version="1.0" encoding="UTF-8" standalone="no"?>
<svg
   xmlns:dc="http://purl.org/dc/elements/1.1/"
   xmlns:cc="http://creativecommons.org/ns#"
   xmlns:rdf="http://www.w3.org/1999/02/22-rdf-syntax-ns#"
   xmlns:svg="http://www.w3.org/2000/svg"
   xmlns="http://www.w3.org/2000/svg"
   version="1.1"
   id="svg2"
   viewBox="0 0 400 300"
   height="300px"
   width="400px">
  <metadata
     id="metadata34">
    <rdf:RDF>
      <cc:Work
         rdf:about="">
        <dc:format>image/svg+xml</dc:format>
        <dc:type
           rdf:resource="http://purl.org/dc/dcmitype/StillImage" />
        <dc:title>Text Bounding Box</dc:title>
      </cc:Work>
    </rdf:RDF>
  </metadata>
  <title
     id="title4">Text Bounding Box</title>
  <style
     id="style6"
     type="text/css">
        text {
            font-size: 50px;
            font-family: sans-serif;
            font-weight: bold;
        }
    </style>
  <pattern
     patternContentUnits="objectBoundingBox"
     height="20%"
     width="100%"
     id="stripes">
    <!--1-->
    <rect
       id="rect9"
       fill="indigo"
       height="0.1"
       width="1" />
    <rect
       id="rect11"
       fill="royalBlue"
       y="0.1"
       height="0.1"
       width="1" />
    <!--2-->
  </pattern>
  <defs
     id="defs13">
    <path
       d="M250,150 L350,200 250,270"
       id="p" />
  </defs>
  <g
     style="fill:url(#stripes)"
     id="g16">
    <!--3-->
    <g
       id="text18"
       style="font-weight:bold;font-size:50px;font-family:sans-serif;text-anchor:end">
      <path
         id="path3347"
         style="font-weight:bold;font-size:50px;font-family:sans-serif;text-anchor:end"
         d="m 16.7,13.5 12,0 8.3,19.6 8.3,-19.6 12,0 0,36.5 -8.9,0 0,-26.7 -8.4,19.7 -6,0 -8.4,-19.7 0,26.7 -8.9,0 0,-36.5 z" />
      <path
         id="path3349"
         style="font-weight:bold;font-size:50px;font-family:sans-serif;text-anchor:end"
         d="m 66.1,22.7 8.8,0 0,27.3 -8.8,0 0,-27.3 z m 0,-10.7 8.8,0 0,7.1 -8.8,0 0,-7.1 z" />
      <path
         id="path3351"
         style="font-weight:bold;font-size:50px;font-family:sans-serif;text-anchor:end"
         d="m 90.2,36 -9.9,-13.3 9.3,0 5.6,8.1 5.8,-8.1 9,0 -10,13.3 11,14 -10,0 -5.8,-8.6 -6.1,8.6 -9.2,0 10.3,-14 z" />
      <path
         id="path3353"
         style="font-weight:bold;font-size:50px;font-family:sans-serif;text-anchor:end"
         d="m 116,22.7 8,0 0,27.3 -8,0 0,-27.3 z m 0,-10.7 8,0 0,7.1 -8,0 0,-7.1 z" />
      <path
         id="path3355"
         style="font-weight:bold;font-size:50px;font-family:sans-serif;text-anchor:end"
         d="m 160,33.3 0,16.7 -9,0 0,-2.7 0,-10 q 0,-3.6 0,-4.9 0,-1.4 0,-2 -1,-0.9 -2,-1.3 -1,-0.5 -2,-0.5 -2,0 -4,2.1 -2,2.1 -2,5.8 l 0,13.5 -8,0 0,-27.3 8,0 0,4 q 2,-2.4 5,-3.6 2,-1.1 5,-1.1 4,0 7,2.9 2,2.9 2,8.4 z" />
      <path
         id="path3357"
         style="font-weight:bold;font-size:50px;font-family:sans-serif;text-anchor:end"
         d="m 187,45.4 q -2,2.4 -4,3.5 -2,1.1 -5,1.1 -5,0 -8,-3.9 -4,-4 -4,-10.1 0,-6.1 4,-10 3,-4 8,-4 3,0 5,1.2 2,1.1 4,3.5 l 0,-4 9,0 0,24.5 q 0,6.6 -4,10.1 -5,3.5 -12,3.5 -3,0 -5,-0.4 -3,-0.4 -5,-1.2 l 0,-6.8 q 2,1.3 4,1.9 2,0.7 5,0.7 4,0 6,-1.9 2,-1.9 2,-5.9 l 0,-1.8 z m -6,-17.1 q -3,0 -4,2 -2,2 -2,5.7 0,3.8 2,5.7 1,2 4,2 3,0 4,-2 2,-2.1 2,-5.7 0,-3.7 -2,-5.7 -1,-2 -4,-2 z" />
    </g>
    <g
       id="text20"
       style="font-weight:bold;font-size:50px;font-family:sans-serif;text-anchor:start">
      <path
         id="path3360"
         style="font-weight:bold;font-size:50px;font-family:sans-serif;text-anchor:start"
         d="m 229,27.7 q 2,0 4,-1 1,-1 1,-2.9 0,-1.9 -1,-2.9 -2,-1 -4,-1 l -5,0 0,7.8 5,0 z m 1,15.9 q 2,0 4,-1.2 1,-1.2 1,-3.6 0,-2.4 -1,-3.5 -2,-1.2 -4,-1.2 l -6,0 0,9.5 6,0 z m 8,-13.1 q 3,0.9 5,3.2 2,2.4 2,5.9 0,5.2 -4,7.8 -4,2.6 -11,2.6 l -15,0 0,-36.5 14,0 q 7,0 11,2.3 3,2.3 3,7.4 0,2.7 -1,4.5 -1,1.9 -4,2.8 z" />
      <path
         id="path3362"
         style="font-weight:bold;font-size:50px;font-family:sans-serif;text-anchor:start"
         d="m 253,13.5 9,0 0,29.4 17,0 0,7.1 -26,0 0,-36.5 z" />
      <path
         id="path3364"
         style="font-weight:bold;font-size:50px;font-family:sans-serif;text-anchor:start"
         d="m 299,19.7 q -4,0 -6,3.2 -3,3.1 -3,8.9 0,5.7 3,8.9 2,3.2 6,3.2 5,0 7,-3.2 2,-3.2 2,-8.9 0,-5.8 -2,-8.9 -2,-3.2 -7,-3.2 z m 0,-6.8 q 9,0 14,5 5,5 5,13.9 0,8.8 -5,13.9 -5,5 -14,5 -8,0 -13,-5 -5,-5.1 -5,-13.9 0,-8.9 5,-13.9 5,-5 13,-5 z" />
      <path
         id="path3366"
         style="font-weight:bold;font-size:50px;font-family:sans-serif;text-anchor:start"
         d="m 354,48 q -2,1.3 -5,2 -3,0.7 -6,0.7 -9,0 -15,-5.1 -5,-5.1 -5,-13.8 0,-8.7 5,-13.8 6,-5.1 15,-5.1 3,0 6,0.7 3,0.7 5,2 l 0,7.5 q -2,-1.7 -5,-2.6 -3,-0.8 -5,-0.8 -5,0 -8,3.2 -3,3.2 -3,8.9 0,5.7 3,8.9 3,3.2 8,3.2 2,0 5,-0.8 3,-0.9 5,-2.6 l 0,7.5 z" />
      <path
         id="path3368"
         style="font-weight:bold;font-size:50px;font-family:sans-serif;text-anchor:start"
         d="m 362,13.5 9,0 0,13.4 14,-13.4 11,0 -18,17.3 20,19.2 -12,0 -15,-14.4 0,14.4 -9,0 0,-36.5 z" />
    </g>
    <!--4-->
    <g
       id="text22"
       style="font-weight:bold;font-size:50px;font-family:sans-serif">
      <path
         id="path3371"
         style="font-weight:bold;font-size:50px;font-family:sans-serif"
         d="m 40.2,114 33.6,0 0,7 -12,0 0,29 -9.4,0 0,-29 -12.2,0 0,-7 z" />
      <path
         id="path3373"
         style="font-weight:bold;font-size:50px;font-family:sans-serif"
         d="m 106,133 0,17 -9,0 0,-3 0,-10 q 0,-3 -0.2,-5 -0.1,-1 -0.5,-2 -0.5,0 -1.4,-1 -0.9,0 -2,0 -2.8,0 -4.3,2 -1.6,2 -1.6,6 l 0,13 -8.7,0 0,-38 8.7,0 0,15 q 2,-3 4.2,-4 2.2,-1 4.9,-1 4.9,0 6.9,3 3,3 3,8 z" />
      <path
         id="path3375"
         style="font-weight:bold;font-size:50px;font-family:sans-serif"
         d="m 134,130 q -1,0 -2,-1 -1,0 -2,0 -4,0 -6,2 -1,2 -1,6 l 0,13 -9,0 0,-27 9,0 0,4 q 1,-3 4,-4 2,-1 5,-1 0,0 1,0 0,0 1,0 l 0,8 z" />
      <path
         id="path3377"
         style="font-weight:bold;font-size:50px;font-family:sans-serif"
         d="m 166,136 0,3 -21,0 q 1,3 3,4 2,2 5,2 3,0 6,-1 3,-1 6,-2 l 0,6 q -3,2 -7,2 -3,1 -6,1 -7,0 -11,-4 -4,-4 -4,-11 0,-6 4,-10 4,-4 11,-4 6,0 10,4 4,4 4,10 z m -9,-3 q 0,-2 -2,-4 -1,-1 -3,-1 -3,0 -4,1 -2,2 -2,4 l 11,0 z" />
      <path
         id="path3379"
         style="font-weight:bold;font-size:50px;font-family:sans-serif"
         d="m 200,136 0,3 -21,0 q 1,3 3,4 2,2 5,2 3,0 6,-1 2,-1 6,-2 l 0,6 q -4,2 -7,2 -3,1 -6,1 -7,0 -11,-4 -5,-4 -5,-11 0,-6 4,-10 5,-4 12,-4 6,0 10,4 4,4 4,10 z m -9,-3 q 0,-2 -2,-4 -1,-1 -3,-1 -3,0 -5,1 -1,2 -2,4 l 12,0 z" />
      <path
         id="path3381"
         style=""
         d="m 44.2,172 8.7,0 0,38 -8.7,0 0,-38 z" />
      <path
         id="path3383"
         style=""
         d="m 61.4,183 8.7,0 0,27 -8.7,0 0,-27 z m 0,-11 8.7,0 0,7 -8.7,0 0,-7 z" />
      <path
         id="path3385"
         style=""
         d="m 106,193 0,17 -8.7,0 0,-3 0,-10 q 0,-3 -0.2,-5 -0.1,-1 -0.5,-2 -0.5,0 -1.4,-1 -0.9,0 -2,0 -2.8,0 -4.3,2 -1.6,2 -1.6,6 l 0,13 -8.7,0 0,-27 8.7,0 0,4 q 2,-3 4.2,-4 2.2,-1 4.9,-1 4.6,0 7.6,3 2,3 2,8 z" />
      <path
         id="path3387"
         style=""
         d="m 142,196 0,3 -21,0 q 0,3 2,4 2,2 6,2 2,0 5,-1 3,-1 6,-2 l 0,6 q -3,2 -6,2 -3,1 -6,1 -8,0 -12,-4 -4,-4 -4,-11 0,-6 4,-10 4,-4 11,-4 7,0 11,4 4,4 4,10 z m -9,-3 q 0,-2 -2,-4 -1,-1 -4,-1 -2,0 -4,1 -1,2 -2,4 l 12,0 z" />
      <path
         id="path3389"
         style=""
         d="m 53.7,235 0,8 9.1,0 0,6 -9.1,0 0,12 q 0,1 0.8,2 0.8,1 3,1 l 4.5,0 0,6 -7.5,0 q -5.2,0 -7.3,-2 -2.2,-2 -2.2,-7 l 0,-12 -4.3,0 0,-6 4.3,0 0,-8 8.7,0 z" />
      <path
         id="path3391"
         style=""
         d="m 95.4,256 0,3 -20.4,0 q 0.3,3 2.2,4 1.9,2 5.3,2 2.8,0 5.7,-1 2.9,-1 5.9,-2 l 0,6 q -3.1,2 -6.2,2 -3.1,1 -6.2,1 -7.4,0 -11.5,-4 -4.1,-4 -4.1,-11 0,-6 4,-10 4.1,-4 11.1,-4 6.5,0 10.3,4 3.9,4 3.9,10 z m -9,-3 q 0,-2 -1.4,-4 -1.5,-1 -3.8,-1 -2.6,0 -4.1,1 -1.6,2 -2,4 l 11.3,0 z" />
      <path
         id="path3393"
         style=""
         d="m 109,256 -9.9,-13 8.9,0 6,8 6,-8 9,0 -10,13 10,14 -9,0 -6,-9 -6,9 -9.4,0 10.4,-14 z" />
      <path
         id="path3395"
         style=""
         d="m 144,235 0,8 9,0 0,6 -9,0 0,12 q 0,1 1,2 0,1 3,1 l 4,0 0,6 -7,0 q -6,0 -8,-2 -2,-2 -2,-7 l 0,-12 -4,0 0,-6 4,0 0,-8 9,0 z" />
    </g>
    <!--5-->
    <g
       id="text28"
       style="font-weight:bold;font-size:50px;font-family:sans-serif">
      <path
         id="path3398"
         style=""
         d="m 267,118 30,15 -4,6 -10,-6 -14,27 -8,-4 13,-27 -11,-5 4,-6 z" />
      <path
         id="path3400"
         style=""
         d="m 309,164 -1,2 -19,-9 q -1,3 0,5 1,2 4,4 3,1 6,2 3,0 6,0 l -3,6 q -3,0 -6,-1 -3,-1 -6,-2 -6,-3 -9,-9 -1,-5 2,-11 3,-6 8,-8 5,-1 12,2 5,3 7,8 2,5 -1,11 z m -7,-7 q 1,-2 1,-4 -1,-2 -3,-3 -2,-1 -4,0 -2,0 -4,2 l 10,5 z" />
      <path
         id="path3402"
         style=""
         d="m 321,170 -3,-16 8,4 2,9 9,-4 8,4 -15,7 3,18 -8,-5 -2,-10 -9,5 -8,-4 15,-8 z" />
      <path
         id="path3404"
         style=""
         d="m 370,173 -5,6 6,6 -4,5 -7,-7 -8,9 q -1,1 -1,2 0,1 2,3 l 3,3 -4,4 -6,-5 q -4,-4 -4,-7 0,-3 4,-6 l 8,-9 -3,-3 4,-4 4,3 5,-6 6,6 z" />
      <path
         id="path3406"
         style=""
         d="m 362,236 -12,9 q -6,4 -11,3 -5,0 -8,-5 -3,-4 -2,-9 1,-5 7,-9 l 5,-3 -7,-11 8,-5 20,30 z m -11,0 -6,-9 -4,3 q -2,2 -3,4 0,2 1,4 1,2 3,2 2,0 5,-1 l 4,-3 z" />
      <path
         id="path3408"
         style=""
         d="m 310,243 q 2,-2 3,-3 0,-2 -1,-3 -1,-2 -2,-2 -1,0 -3,1 -2,2 -2,4 -1,3 1,5 l 0,1 4,-3 z m -9,10 -9,-12 7,-5 3,3 q 0,-3 1,-5 1,-3 3,-4 4,-3 8,-2 3,0 5,3 3,4 2,8 -2,4 -7,8 l -5,3 1,0 q 1,2 3,2 2,0 5,-2 2,-2 3,-4 2,-1 3,-4 l 4,6 q -2,2 -4,4 -2,2 -4,3 -7,5 -11,4 -4,0 -8,-6 z" />
      <path
         id="path3410"
         style=""
         d="m 298,279 -5,-6 -7,5 -4,-5 8,-5 -7,-9 q -1,-2 -2,-2 -1,0 -3,1 l -4,3 -3,-6 6,-4 q 4,-3 7,-2 3,0 6,4 l 7,10 3,-2 4,5 -4,2 5,6 -7,5 z" />
      <path
         id="path3412"
         style=""
         d="m 253,288 -10,-13 7,-5 2,2 6,8 q 2,3 3,4 1,1 1,1 1,1 2,1 1,0 2,-1 2,-2 2,-4 0,-3 -2,-6 l -7,-11 7,-5 22,31 -8,5 -8,-12 q 0,3 -1,5 -2,3 -4,4 -4,3 -7,2 -4,-1 -7,-6 z" />
    </g>
    <!--6-->
  </g>
</svg>
