<svg xmlns="http://www.w3.org/2000/svg" 
     xmlns:xlink="http://www.w3.org/1999/xlink"
     width="400px" height="320px" viewBox="0 0 400 320" 
     xml:lang="en">
    <title>Three-color vision</title>
    <style type="text/css">
        svg {
            font: 18px sans-serif;
        }
    </style>
    <metadata>
    Clip art adapted from the Open Clip Art Library:
    <a href="https://openclipart.org/detail/211232/CFL-by-jhnri4">Light bulb -- by jhnri4</a>
    <a href="https://openclipart.org/detail/202735/eye-side-by-pnx">Eye -- by pnx</a>
    <a href="https://openclipart.org/detail/193152/Metacognition-by-benoitpetit">Brain -- by benoitpetit</a>
    </metadata>
    <defs>
        <symbol id="arrow" viewBox="0 -8 20 16">
            <path d="M0,-4L13,-4 12,-8 20,0 12,8 13,4 0,4 2,0Z"/>
        </symbol>
        <linearGradient id="green-red" x2="10%" y2="10%" spreadMethod="repeat">
            <stop offset="0%" stop-color="red" />
            <stop offset="50%" stop-color="red" />
            <stop offset="50%" stop-color="lime" />
            <stop offset="100%" stop-color="lime" />
        </linearGradient>
    </defs>
    
    <g transform="translate(0,10)">
        <use xlink:href="#lightbulb" x="10" width="80" height="100"/>
        <use xlink:href="#eye" x="160" width="80" height="100"/>
        <use xlink:href="#brain" x="310" width="80" height="100"/>
        
        <use xlink:href="#arrow" x="110" width="40" height="100"/>
        <use xlink:href="#arrow" x="250" width="40" height="100"/>
    </g>
    <g transform="translate(0,120)">
        <rect x="20" y="10" width="80" height="80" fill="yellow" stroke="black"/>
        <svg id="chart" x="180" y="15" width="60" height="60" 
             viewBox="0,-100 100,100" overflow="visible">
            <path stroke="black" fill="none" d="M0,-100L0,0 100,0"/>
            <g text-anchor="end">
                <text y="-100" dy="1ex">100%</text>
                <text y="-50" dy="1ex">50%</text>
                <text y="0" dy="1ex">0%</text>
            </g>
            <g text-anchor="middle">
                <text x="16.5" dy="1em">S</text>
                <text x="50" dy="1em">M</text>
                <text x="83.5" dy="1em">L</text>
            </g>
            <rect x="5" width="20" y="-1" height="1" fill="blue"/>
            <rect x="40" width="20" y="-95" height="95" fill="green"/>
            <rect x="75" width="20" y="-95" height="95" fill="red"/>
        </svg>
        <text id="yellow"
              fill="yellow" stroke="darkgoldenrod" font-size="150%"
              transform="translate(290,10)rotate(45)">YELLOW</text>
        
        <use xlink:href="#arrow" x="110" width="40" height="100"/>
        <use xlink:href="#arrow" x="250" width="40" height="100"/>
    </g>
    <g transform="translate(0,220)">
        <rect x="20" y="10" width="80" height="80" fill="url(#green-red)" stroke="black"/>
        <use xlink:href="#chart" />
        <use xlink:href="#arrow" x="110" width="40" height="100"/>
        <use xlink:href="#arrow" x="250" width="40" height="100"/>
        <use xlink:href="#yellow" />
    </g>
    
    <defs>
<svg
   xmlns:svg="http://www.w3.org/2000/svg"
   xmlns="http://www.w3.org/2000/svg"
   version="1.1"
   width="100%"
   height="100%"
   viewBox="0 0 248 470"
   id="lightbulb">
  <g
     transform="translate(-66.9,-109)"
     id="layer1">
    <g
       transform="matrix(0.713,0,0,0.713,-213,-102)"
       id="g3342">
      <path
         d="m 523,919 0,6 16,25 c 0,0 9,6 36,6 26,0 37,-5 38,-6 1,-1 17,-23 18,-25 0,-2 -1,-7 -1,-7 z"
         id="path3332"
         style="fill:#444444" />
      <path
         d="m 491,768 -1,28 c 0,3 2,3 3,4 1,2 2,3 2,5 0,3 -1,7 -3,7 -1,1 -4,3 -4,7 0,3 1,5 4,7 1,0 2,1 3,0 l -1,13 c 0,0 -1,1 -2,2 -2,1 -3,3 -3,5 0,1 0,3 2,5 2,1 5,2 5,2 v 9 c 0,0 -8,4 -8,9 0,2 1,4 3,5 3,1 8,3 8,3 2,4 -3,7 -5,10 -1,1 -2,2 -3,3 0,1 -1,1 -2,2 0,1 0,3 1,5 1,1 3,2 5,3 1,1 3,1 3,1 1,2 4,4 5,6 3,3 6,6 9,7 3,3 7,4 11,5 9,1 27,2 44,3 14,0 27,0 37,0 23,-1 20,-1 29,-3 2,-1 4,-2 6,-2 2,-1 5,-2 6,-3 3,-2 4,-4 6,-7 1,-1 2,-3 3,-4 1,-1 3,-1 3,-3 0,-1 -1,-2 0,-5 0,-2 0,-5 0,-6 0,-1 3,-2 5,-3 2,-1 5,-3 5,-6 0,-4 -3,-4 -5,-6 -2,-1 -4,-4 -4,-6 0,-6 8,-5 8,-12 1,-2 0,-4 -2,-5 -2,-2 -6,-3 -6,-7 0,-2 2,-4 4,-7 2,-2 4,-6 4,-8 0,-2 -3,-4 -5,-6 -1,-2 -2,-4 -2,-6 0,-2 2,-4 3,-6 1,-1 3,-1 3,-3 l -1,-38 c 0,0 2,-1 4,-3 3,-3 6,-6 5,-9 -12,-38 -163,-14 -163,-14 z"
         id="path2994"
         style="fill:#aaaaaa" />
      <path
         d="m 664,881 c -52,14 -105,16 -158,17 -6,0 -16,-5 -13,3 6,3 14,3 20,4 50,-1 97,-3 146,-16 5,0 5,-5 5,-8 z m 2,-25 c -51,15 -107,17 -160,18 -6,0 -15,-5 -12,3 6,3 13,3 19,4 50,-1 98,-3 147,-16 5,0 6,-6 6,-9 z m -2,-25 c -52,14 -105,15 -158,16 -6,0 -13,-1 -10,7 6,3 11,0 17,1 50,-1 98,-2 146,-15 6,0 5,-7 5,-9 z m 0,-25 c -52,14 -105,16 -158,17 -6,0 -14,-2 -11,7 6,3 12,-1 18,0 50,-1 97,-2 146,-15 5,0 5,-6 5,-9 z"
         id="path3191"
         style="fill:#444444" />
    </g>
    <g
       transform="matrix(0.713,0,0,0.713,-84.8,112)"
       id="g3144"
       style="fill:#bbbbbb;stroke:#eeeeee;stroke-width:8">
      <path
         d="m 362,74.9 c -15,0.7 -44,-4.7 -34,-25.8 10,-15.7 32,-12 49,-12.1 25,0.8 51,7 75,0.1 22,-5.6 13,-33.45 -8,-27.5 -25,1.3 -47,-18.44 -73,-11.56 -23,6 -46,15.36 -69,20.16 -24,6 -50,18.8 -59,42.6 -3,17.1 12,32.9 26,39.2 31,-8.3 62,-16.7 93,-25.1 z"
         id="path3110" />
      <path
         d="m 362,74.9 c -31,8.5 -63,16.9 -94,25.1 27,18 60,14 89,5 26,-7.2 54,-18.8 81,-13.2 19,4.9 35,17.2 54,19.2 24,-6 3,-35.4 -15,-29.8 -32,-2.4 -64,3.7 -94,-4.8 -7,-0.7 -14,-1.1 -21,-1.5 z"
         id="path2996" />
      <path
         d="m 261,102 c 10,17 31,21 48,26 48,12 99,10 148,13 27,1 56,-3 82,9 18,10 3,37 -15,26 -34,-9 -69,-12 -103,-3 -27,8 -56,14 -84,7 -26,-6 -53,-11 -77,-21 -16,-11 -11,-32 -12,-48 -1,-5 9,-6 13,-9 z"
         id="path3006" />
      <path
         d="M 558,103 C 558,78.7 529,72.2 510,75.1 434,79.4 358,92 285,114 c -26,10 -56,21 -67,49 -6,17 0,37 15,46 4,8 31,18 23,4 -4,-7 20,-12 27,-19 9,-5 24,-15 5,-16 -9,-6 22,-12 30,-15 64,-19 130,-27 196,-33 18,2 41,-3 43,-24 l 0,-3 0,0 z"
         id="path3002" />
      <path
         d="m 286,219 c 13,18 38,19 58,22 38,4 75,8 113,10 -5,19 -13,39 -8,59 4,17 10,41 32,42 23,2 24,-24 20,-41 -2,-19 -2,-44 17,-54 17,-10 24,-39 5,-52 -13,-7 -29,-4 -44,-6 -50,-4 -99,-9 -148,-13 -16,7 -45,10 -46,31 l 1,2 0,0 z"
         id="path3008" />
      <path
         d="m 561,166 c 2,-21 -21,-31 -39,-27 -41,5 -81,7 -121,16 -38,7 -77,13 -114,26 -22,10 -46,25 -48,51 1,20 21,27 36,35 19,14 12,42 15,64 -4,22 18,25 34,30 10,0 35,18 27,-3 -7,-32 -10,-65 -20,-96 -3,-14 -31,-34 -3,-34 37,-10 76,-17 115,-22 32,-6 65,-9 98,-14 11,-3 20,-14 20,-26 z"
         id="path3004" />
      <path
         d="M 533,37.9 C 534,14.5 507,6.92 488,8.86 428,8.45 368,19.3 311,38.9 277,49.6 240,60.5 219,91 c -10,17 -7,42 10,54 11,-10 25,-16 36,-28 44,-21.7 93,-33.2 141,-40.5 31,-5.1 62,-7.7 93,-11.6 17,0.7 34,-8.1 34,-27 z"
         id="path3000" />
    </g>
    <g
       transform="matrix(0.713,0,0,0.713,-113,-102)"
       id="g3058">
      <path
         d="m 304,649 v 18 h 265 l 1,-13 1,-9 z"
         id="path2992"
         style="fill:#444444" />
      <path
         d="m 305,658 -4,1 1,53 c 0,12 11,23 13,25 4,4 22,20 22,21 1,3 4,7 4,7 1,1 1,3 1,3 l 9,2 c 0,0 13,3 82,3 67,0 101,-7 101,-7 l 5,-8 0,-2 32,-38 2,-62 -149,4 -103,-1 z"
         id="path3020"
         style="fill:#888888" />
      <g
         transform="translate(0,20)"
         id="g3050">
        <path
           d="m 307,611 -7,8 v 4 c 0,1 -2,1 -2,2 v 10 h 197 c 41,0 80,-3 80,-3 l -1,-10 -1,-1 0,-5 -8,-7 h -18 c 0,0 -10,0 -10,-5 0,-6 -2,-13 -7,-14 l -45,-6 0,-18 c 0,-6 -2,-9 -8,-9 l -89,1 c -3,0 -5,3 -5,5 l -1,22 -43,6 c -4,2 -5,5 -6,9 -1,5 0,9 -11,11 -4,1 -15,0 -15,0 z"
           id="path3018"
           style="fill:#888888" />
      </g>
    </g>
  </g>
</svg>
        
<svg
   xmlns:svg="http://www.w3.org/2000/svg"
   xmlns="http://www.w3.org/2000/svg"
   width="100%"
   height="100%"
   viewBox="0 0 151 193"
   id="eye" >
    <defs>
    <linearGradient
       x1="2560"
       y1="3040"
       x2="1640"
       y2="2330"
       id="id0"
       gradientUnits="userSpaceOnUse">
        <stop
         id="stop9"
         style="stop-color:#cccccc;stop-opacity:1"
         offset="0" />
        <stop
         id="stop11"
         style="stop-color:#ffffff;stop-opacity:1"
         offset="1" />
    </linearGradient>
    </defs>
    <g
     transform="matrix(0.036,0,0,0.036,0.021,0.016)"
     id="Layer_x0020_1">
        <path
       d="M 822,4330 C 335,3950 21,3350 21,2690 21,2020 334,1430 822,1050 c 818,810 2068,1640 3358,1640 -1290,0 -2540,820 -3358,1640 z"
       id="path14"
       style="fill:url(#id0)" />
        <path
       d="M 310,3750 C 126,3440 21,3070 21,2690 c 0,-390 106,-750 289,-1060 87,330 134,690 134,1060 0,370 -47,720 -134,1060 z"
       id="path16"
       style="fill:#666666" />
        <g style="fill:none;stroke:#000000;stroke-width:42.33;stroke-linecap:round;stroke-linejoin:round">
            <path
           d="M 4180,2690 C 2310,2690 496,934 21,21" />
            <path
           d="M 4180,2690 C 2310,2690 496,4440 21,5350" />
            <path
           d="M 822,4330 C 335,3950 21,3350 21,2690 21,2020 334,1430 822,1050 c 818,810 2068,1640 3358,1640 -1290,0 -2540,820 -3358,1640 z" />
        </g>
    </g>
</svg>
        
<svg
   xmlns:svg="http://www.w3.org/2000/svg"
   xmlns="http://www.w3.org/2000/svg"
   width="100%"
   height="100%"
   viewBox="0 0 200 200"
   id="brain">
    <g transform="scale(-1,1)translate(-200,0)">
    <path
     d="m 53.7,195 c 6.2,-12 4.6,-45 3.8,-58 0,0 -8.1,-7 -10.7,-10 -4.6,-6 -10.1,-15 -12.4,-22 -2.7,-8.4 -4,-20.1 -3.3,-28.6 0.7,-8 3,-18.9 7.4,-25.7 4.8,-7.4 14.7,-14.9 22.7,-18.9 7.9,-4.1 20,-7 29.1,-7.7 8.7,-0.6 20.7,1 28.7,3.2 10,2.4 23,7.3 31,13.5 19,15.9 18,36.7 20,59 1,5.2 6,11.2 9,16.2 1,2 4,3 5,5 1,2 2,4 1,5 0,2 -4,3 -6,4 -1,1 -3,1 -4,2 -1,3 3,7 1,10 -1,1 -5,1 -5,1 0,0 5,6 3,6 -1,0 -5,6 -4,8 0,0 2,5 3,7 0,3 -1,7 -3,9 -2,2 -6,2 -9,2 -4,2 -11,1 -15,2 -3,1 -7,2 -10,4 -2,1 -5,3 -6,5 -2,6 0,3 -1,10 l -75.7,0Z"
     style="fill:#fffdfc;stroke:#333333;stroke-width:5" /><path
     d="m 88.1,132 c 0,0 -3.4,2 -5,3 -1.5,0 -3.8,0 -5.3,0 -1.2,-1 -3.1,-3 -3.1,-3 -13.1,3 -19.5,-8 -20.3,-15 0,0 -4.6,-1 -6.6,-2 -5.7,0 -8.6,-15 -8.6,-15.7 C 38.1,73.3 41.6,60.4 59,43.4 66.5,36 77.8,32.2 94.9,31.6 106,31.2 115,31.7 122,35.5 c 0,0 15,6.4 20,10.7 6,4.1 11,10.8 15,16.7 5,11.6 3,29.3 -9,31.3 l -14,2.3 c -4,0.7 5,8.5 -6,15.5 -9,9 -20,1 -21,2 0,0 -4,5 -5,8 -1,3 -2.5,6 -3.2,9 -0.6,2 0.7,6 -1.2,7 -4.6,3 -9.5,1 -9.5,0 v -6 z"
     style="fill:#919899;stroke:#454a4b;stroke-width:3" />
    <g
     id="g3760"
     style="fill:none;stroke:#3d3d3d;stroke-width:9;stroke-linecap:round">
        <line
       x1="159"
       y1="33.7"
       x2="165"
       y2="26"/>
        <line
       x1="120"
       y1="16.6"
       x2="123"
       y2="7.14"/>
        <line
       x1="74.8"
       y1="15.7"
       x2="72.7"
       y2="6.07" />
        <line
       x1="25.3"
       y1="114"
       x2="16.2"
       y2="118"/>
        <line
       x1="39.9"
       y1="33.7"
       x2="33.6"
       y2="26.1" />
        <line
       x1="20.6"
       y1="67.7"
       x2="10.9"
       y2="66.1" />
        <line
       x1="180"
       y1="67"
       x2="190"
       y2="64.7" />
    </g>
    </g>
</svg>
    </defs>
</svg>